<?xml version="1.0" encoding="utf-8"?>
<!-- Generator: Adobe Illustrator 27.9.0, SVG Export Plug-In . SVG Version: 6.00 Build 0)  -->
<svg version="1.1" id="Layer_1" xmlns="http://www.w3.org/2000/svg" xmlns:xlink="http://www.w3.org/1999/xlink" width="180" height="64"
	 viewBox="0 0 180 64" fill="none" xml:space="preserve">
<style type="text/css">
	.st0{display:none;fill-rule:evenodd;clip-rule:evenodd;fill:#29B6C4;}
	.st1{display:none;fill-rule:evenodd;clip-rule:evenodd;fill:#D4EBF3;}
	.st2{display:none;fill-rule:evenodd;clip-rule:evenodd;fill:#FFFFFF;}
	.st3{fill-rule:evenodd;clip-rule:evenodd;fill:#FFFFFF;}
	.st4{fill-rule:evenodd;clip-rule:evenodd;fill:#D4EBF3;}
	.st5{fill-rule:evenodd;clip-rule:evenodd;fill:#29B6C4;}
	.st6{clip-path:url(#SVGID_00000058559814211491572780000011243635110943146911_);}
</style>
<g id="Layer_1_00000025439759675839085260000018055429994554939777_">
	<path class="st0" d="M141.8,14.8h-9.2c-1.2,0-2.3-1-2.3-2.3V3.3c0-1.2,1-2.3,2.3-2.3h9.2c1.2,0,2.3,1,2.3,2.3v9.2
		C144.1,13.8,143.1,14.8,141.8,14.8z"/>
	<path class="st0" d="M159.8,14.8h-9.2c-1.2,0-2.3-1-2.3-2.3V3.3c0-1.2,1-2.3,2.3-2.3h9.2c1.2,0,2.3,1,2.3,2.3v9.2
		C162,13.8,161,14.8,159.8,14.8z"/>
	<path class="st0" d="M177.7,14.8h-9.2c-1.2,0-2.3-1-2.3-2.3V3.3c0-1.2,1-2.3,2.3-2.3h9.2c1.2,0,2.3,1,2.3,2.3v9.2
		C180,13.8,179,14.8,177.7,14.8z"/>
	<path class="st0" d="M148.3,30.4v-9.2c0-1.2,1-2.3,2.3-2.3h9.2c1.2,0,2.3,1,2.3,2.3v9.2c0,1.2-1,2.3-2.3,2.3h-9.2
		C149.3,32.7,148.3,31.7,148.3,30.4z"/>
	<path class="st0" d="M148.3,48.4v-9.2c0-1.2,1-2.3,2.3-2.3h9.2c1.2,0,2.3,1,2.3,2.3v9.2c0,1.2-1,2.3-2.3,2.3h-9.2
		C149.3,50.7,148.3,49.6,148.3,48.4z"/>
	<path class="st1" d="M130.3,30.4v-9.2c0-1.2,1-2.3,2.3-2.3h9.2c1.2,0,2.3,1,2.3,2.3v9.2c0,1.2-1,2.3-2.3,2.3h-9.2
		C131.3,32.7,130.3,31.7,130.3,30.4z"/>
	<path class="st1" d="M130.3,48.4v-9.2c0-1.2,1-2.3,2.3-2.3h9.2c1.2,0,2.3,1,2.3,2.3v9.2c0,1.2-1,2.3-2.3,2.3h-9.2
		C131.3,50.7,130.3,49.6,130.3,48.4z"/>
	<path class="st1" d="M166.2,30.4v-9.2c0-1.2,1-2.3,2.3-2.3h9.2c1.2,0,2.3,1,2.3,2.3v9.2c0,1.2-1,2.3-2.3,2.3h-9.2
		C167.3,32.7,166.2,31.7,166.2,30.4z"/>
	<path class="st1" d="M166.2,48.4v-9.2c0-1.2,1-2.3,2.3-2.3h9.2c1.2,0,2.3,1,2.3,2.3v9.2c0,1.2-1,2.3-2.3,2.3h-9.2
		C167.3,50.7,166.2,49.6,166.2,48.4z"/>
	<path class="st2" d="M102.3,20.6c-2.3,0-4.2-1.9-4.2-4.2s1.9-4.2,4.2-4.2h10.8c0,0,9.3,0,10.7-11.2h-21.5
		c-8.5,0-15.4,6.8-15.4,15.2c0,8.5,6.9,15.2,15.4,15.2h10.5c2.2,0,4,1.9,4,4.2s-1.9,4.4-4.2,4.4H86.9c0,6,4.9,11,11,11h14.7
		c8.5,0,15.4-6.8,15.4-15.2s-6.9-15.3-15.4-15.3h-10.7L102.3,20.6z"/>
	<path class="st2" d="M83,16.3C83,8.1,76.8,1.5,68.8,1H46.4v0.1V19v1.5l0,0v19.4c0,1,0.1,1.9,0.3,2.7c0.1,0.5,0.3,1,0.5,1.5
		c0.5,1.2,1.2,2.2,2,3.1c0.7,0.8,1.5,1.5,2.5,2c0.3,0.2,0.6,0.4,0.9,0.5c1.5,0.7,3.1,1.1,4.8,1.1h0.1V31.5h10.2c3.7,0,7-1.3,9.7-3.5
		c0.4-0.3,0.7-0.6,1.1-1c1-1,1.9-2.2,2.6-3.5s1.2-2.7,1.5-4.2c0-0.2,0.1-0.5,0.1-0.7C82.9,17.8,83,17.1,83,16.3z M71.7,17.6
		c-0.1,0.2-0.2,0.5-0.3,0.7c-0.2,0.5-0.6,0.9-1,1.2c-0.7,0.6-1.6,0.9-2.6,0.9H57.5v-2V12h9.2l1,0.1c2.3,0,4.2,1.9,4.2,4.2
		C71.9,16.8,71.9,17.2,71.7,17.6z"/>
	<path class="st2" d="M42.4,1c-6.2,0-11.2,5-11.2,11.2V28c0,0-20.6-21.2-22.5-23C6.2,2.7,3.6,1,0.1,1H0v49.9h0.1
		c6.2,0,11.2-5,11.2-11.2V23.8l22,22.5c2.8,2.7,5.3,4.7,9.1,4.7h0.1L42.4,1L42.4,1z"/>
	<path class="st1" d="M46.4,23.9c0,0,12.7,1.1,22.1-2.1C82.1,17.2,78.8,5.7,78.8,5.7s6,5.3,3.4,12.2c-1.7,4.5-6,8.4-10.7,10
		c-11.3,4-25,2.2-25,2.2v-6.2C46.5,23.9,46.4,23.9,46.4,23.9z"/>
	<path class="st0" d="M46.4,22.9c0,0,11.7,1.1,21.2-2.1c13.6-4.6,10.2-16,10.2-16s6,5.3,3.4,12.2c-1.7,4.5-6,8.4-10.7,10
		c-11.3,3.9-24.1,2.1-24.1,2.1L46.4,22.9z"/>
	<path class="st3" d="M86.9,55.6h0.9V62h-0.9V55.6z M92.2,62v-2.9c0-0.5-0.1-0.8-0.2-1C91.9,58,91.6,58,91.3,58
		c-0.5,0-0.8,0.1-1,0.4c-0.2,0.2-0.4,0.6-0.4,1V62h-0.8v-4.7h0.7V58c0.2-0.2,0.4-0.5,0.6-0.6s0.5-0.2,0.9-0.2c0.3,0,0.7,0,0.9,0.2
		c0.2,0.1,0.4,0.2,0.5,0.5c0.1,0.1,0.1,0.2,0.2,0.4c0,0.2,0,0.4,0,0.7v0.2V62H92.2L92.2,62z M97.3,62v-2.9c0-0.5-0.1-0.8-0.2-1
		C97,58,96.7,58,96.4,58c-0.5,0-0.8,0.1-1,0.4c-0.2,0.2-0.4,0.6-0.4,1V62h-0.8v-4.7h0.7V58c0.2-0.2,0.4-0.5,0.6-0.6s0.5-0.2,0.9-0.2
		c0.3,0,0.7,0,0.9,0.2c0.2,0.1,0.4,0.2,0.5,0.5c0.1,0.1,0.1,0.2,0.2,0.4c0,0.2,0,0.4,0,0.7v0.2V62H97.3L97.3,62z M99.8,59.7
		c0,0.6,0.1,1,0.4,1.3s0.6,0.5,1.1,0.5s0.8-0.2,1-0.5s0.4-0.7,0.4-1.3s-0.1-1-0.4-1.3c-0.2-0.3-0.6-0.5-1-0.5s-0.8,0.2-1.1,0.5
		S99.8,59.1,99.8,59.7z M99,59.7c0-0.8,0.2-1.4,0.6-1.8c0.4-0.4,1-0.7,1.6-0.7c0.7,0,1.2,0.2,1.7,0.7c0.4,0.4,0.6,1,0.6,1.8
		s-0.2,1.4-0.6,1.8c-0.4,0.4-1,0.7-1.6,0.7c-0.7,0-1.2-0.2-1.7-0.7C99.2,61.1,99,60.5,99,59.7z M105.6,62l-1.7-4.7h0.8L106,61
		l1.3-3.7h0.8l-1.7,4.7H105.6z M111.6,61.4c-0.2,0.2-0.5,0.5-0.8,0.6s-0.6,0.2-0.9,0.2c-0.5,0-0.8-0.1-1.1-0.4
		c-0.2-0.2-0.4-0.6-0.4-1s0.1-0.7,0.4-1c0.2-0.2,0.7-0.4,1.2-0.5c0.1,0,0.3,0,0.5,0c0.4,0,0.6-0.1,0.7-0.1s0.2-0.1,0.2-0.1
		s0-0.2,0-0.4s-0.1-0.4-0.2-0.5c-0.2-0.1-0.4-0.2-0.8-0.2s-0.6,0.1-0.8,0.2c-0.2,0.2-0.3,0.4-0.3,0.7h-0.7l0,0
		c0-0.5,0.2-0.8,0.5-1.1s0.8-0.4,1.4-0.4s1.1,0.1,1.4,0.3s0.5,0.6,0.5,1.1V61c0,0.2,0,0.3,0.1,0.4c0,0,0.1,0.1,0.2,0.1
		c0,0,0,0,0.1,0h0.1v0.6c-0.1,0-0.2,0-0.2,0c-0.1,0-0.1,0-0.2,0c-0.2,0-0.5,0-0.6-0.2S111.6,61.7,111.6,61.4z M111.6,59.7
		c-0.2,0.1-0.6,0.2-1.1,0.2c-0.2,0-0.3,0-0.4,0c-0.3,0-0.5,0.1-0.6,0.2s-0.2,0.3-0.2,0.5s0.1,0.4,0.2,0.5s0.3,0.2,0.6,0.2
		c0.4,0,0.8-0.1,1-0.3s0.4-0.5,0.4-0.8L111.6,59.7L111.6,59.7z M114.5,60.9c0,0.2,0,0.3,0.1,0.4c0,0.1,0.2,0.1,0.3,0.1
		c0,0,0.1,0,0.2,0s0.2,0,0.2,0v0.7c-0.1,0-0.2,0-0.3,0s-0.2,0-0.3,0c-0.4,0-0.6-0.1-0.8-0.2c-0.2-0.1-0.2-0.4-0.2-0.7V58H113v-0.6
		h0.7v-1.3h0.8v1.3h0.8V58h-0.8V60.9z M116.1,55.6h0.8v0.9h-0.8V55.6z M116.1,57.4h0.8V62h-0.8V57.4z M118.6,59.7
		c0,0.6,0.1,1,0.4,1.3s0.6,0.5,1.1,0.5s0.8-0.2,1-0.5s0.4-0.7,0.4-1.3s-0.1-1-0.4-1.3c-0.2-0.3-0.6-0.5-1-0.5s-0.8,0.2-1.1,0.5
		S118.6,59.1,118.6,59.7z M117.8,59.7c0-0.8,0.2-1.4,0.6-1.8c0.4-0.4,1-0.7,1.6-0.7c0.7,0,1.2,0.2,1.7,0.7c0.4,0.4,0.6,1,0.6,1.8
		s-0.2,1.4-0.6,1.8c-0.4,0.4-1,0.7-1.6,0.7c-0.7,0-1.2-0.2-1.7-0.7C118,61.1,117.8,60.5,117.8,59.7z M126.4,62v-2.9
		c0-0.5-0.1-0.8-0.2-1s-0.4-0.2-0.7-0.2c-0.5,0-0.8,0.1-1,0.4c-0.2,0.2-0.4,0.6-0.4,1V62h-0.8v-4.7h0.8V58c0.2-0.2,0.4-0.5,0.6-0.6
		s0.5-0.2,0.9-0.2c0.3,0,0.7,0,0.9,0.2c0.2,0.1,0.4,0.2,0.5,0.5c0.1,0.1,0.1,0.2,0.2,0.4c0,0.2,0,0.4,0,0.7v0.2V62H126.4L126.4,62z
		 M130.8,55.6h0.8v0.9h-0.8V55.6z M130.8,57.4h0.8V62h-0.8V57.4z M135.9,62v-2.9c0-0.5-0.1-0.8-0.2-1c-0.1-0.2-0.4-0.2-0.7-0.2
		c-0.5,0-0.8,0.1-1,0.4c-0.2,0.2-0.4,0.6-0.4,1V62h-0.8v-4.7h0.8V58c0.2-0.2,0.4-0.5,0.6-0.6c0.2-0.1,0.5-0.2,0.9-0.2
		c0.3,0,0.7,0,0.9,0.2c0.2,0.1,0.4,0.2,0.5,0.5c0.1,0.1,0.1,0.2,0.2,0.4c0,0.2,0,0.4,0,0.7v0.2V62H135.9L135.9,62z M140.9,59.3h2.6
		c0-0.4-0.1-0.8-0.3-1s-0.5-0.4-0.9-0.4s-0.7,0.1-0.9,0.3C141.1,58.5,140.9,58.8,140.9,59.3z M143.4,60.5h0.8
		c-0.1,0.5-0.3,0.9-0.7,1.2s-0.8,0.5-1.4,0.5c-0.7,0-1.2-0.2-1.5-0.7c-0.4-0.4-0.6-1-0.6-1.8s0.2-1.4,0.5-1.9
		c0.4-0.5,0.9-0.7,1.5-0.7c0.7,0,1.2,0.2,1.5,0.6c0.4,0.4,0.5,1,0.5,1.7c0,0.1,0,0.2,0,0.2v0.1h-3.3c0,0.5,0.1,0.9,0.4,1.1
		c0.2,0.2,0.5,0.4,1,0.4c0.3,0,0.6-0.1,0.8-0.2C143.2,61,143.4,60.8,143.4,60.5z M146.3,62l-1.7-4.7h0.8l1.3,3.7l1.3-3.7h0.8
		l-1.7,4.7H146.3z M150,59.3h2.6c0-0.4-0.1-0.8-0.3-1s-0.5-0.4-0.9-0.4s-0.7,0.1-0.9,0.3C150.2,58.5,150.1,58.8,150,59.3z
		 M152.6,60.5h0.8c-0.1,0.5-0.3,0.9-0.7,1.2s-0.8,0.5-1.4,0.5c-0.7,0-1.2-0.2-1.5-0.7c-0.4-0.4-0.6-1-0.6-1.8s0.2-1.4,0.5-1.9
		c0.4-0.5,0.9-0.7,1.5-0.7c0.7,0,1.2,0.2,1.5,0.6c0.4,0.4,0.5,1,0.5,1.7c0,0.1,0,0.2,0,0.2v0.1H150c0,0.5,0.1,0.9,0.4,1.1
		c0.2,0.2,0.5,0.4,1,0.4c0.3,0,0.6-0.1,0.8-0.2C152.4,61,152.5,60.8,152.6,60.5z M154.3,62v-4.7h0.8v0.8c0.1-0.3,0.3-0.5,0.5-0.7
		s0.5-0.2,0.8-0.2h0.1c0,0,0,0,0.1,0V58c0,0,0,0-0.1,0h-0.1c-0.4,0-0.7,0.1-1,0.3c-0.2,0.2-0.3,0.5-0.3,1V62H154.3L154.3,62z
		 M160.3,57.4h0.9l-2,5.4c-0.2,0.5-0.4,0.8-0.5,1c-0.2,0.2-0.5,0.2-0.8,0.2c-0.1,0-0.2,0-0.2,0c-0.1,0-0.2,0-0.2,0v-0.7
		c0.1,0,0.2,0,0.2,0c0.1,0,0.2,0,0.2,0c0.2,0,0.3,0,0.4-0.1c0.1,0,0.2-0.2,0.2-0.3l0.2-0.5l-1.8-4.9h0.9l1.3,3.8L160.3,57.4z
		 M163.7,62l1.4-6.4h0.8l-0.5,2.3c0.2-0.2,0.4-0.4,0.6-0.5c0.2-0.1,0.5-0.2,0.8-0.2c0.5,0,1,0.2,1.3,0.5s0.5,0.8,0.5,1.4
		c0,0.4,0,0.7-0.2,1.2c-0.1,0.4-0.3,0.7-0.5,1s-0.5,0.5-0.8,0.6c-0.3,0.2-0.6,0.2-1,0.2s-0.7-0.1-1-0.2c-0.2-0.2-0.5-0.4-0.6-0.7
		l-0.2,0.7h-0.6V62z M166.5,57.9c-0.2,0-0.5,0-0.6,0.2c-0.2,0.1-0.4,0.2-0.5,0.5c-0.2,0.2-0.3,0.5-0.4,0.8c-0.1,0.3-0.2,0.6-0.2,0.9
		c0,0.4,0.1,0.7,0.3,0.9s0.5,0.3,0.8,0.3c0.5,0,0.9-0.2,1.2-0.7s0.5-1,0.5-1.7c0-0.4-0.1-0.7-0.3-0.9
		C167.2,58,166.9,57.9,166.5,57.9z M169.9,62.3l-0.8-4.9h0.8l0.5,3.9l2-3.9h0.9l-3,5.8c-0.2,0.3-0.3,0.5-0.5,0.6S169.3,64,169,64
		c0,0-0.1,0-0.2,0c-0.1,0-0.2,0-0.2-0.1l0.2-0.7c0,0,0.1,0,0.2,0c0,0,0.1,0,0.2,0c0.1,0,0.2,0,0.3-0.1c0.1,0,0.2-0.1,0.2-0.2
		L169.9,62.3z M174.8,62l0.1-0.6c-0.1,0-0.2,0-0.2,0c-0.1,0-0.2,0-0.2,0c-0.1,0-0.2,0-0.2-0.1c0,0-0.1-0.1-0.1-0.2V61
		c0,0,0-0.1,0-0.2l0.6-2.9h0.8l0.1-0.6h-0.8l0.2-1.2h-0.8l-0.2,1.2h-0.7l-0.1,0.6h0.7l-0.6,2.8c0,0.1,0,0.2,0,0.3s0,0.2,0,0.2
		c0,0.2,0.1,0.5,0.2,0.6c0.2,0.1,0.4,0.2,0.8,0.2c0.1,0,0.2,0,0.2,0C174.5,62.1,174.6,62,174.8,62z M176.5,59.3h2.5c0,0,0,0,0-0.1
		v-0.1c0-0.4-0.1-0.7-0.3-0.9s-0.5-0.3-0.8-0.3c-0.4,0-0.7,0.1-1,0.4C176.8,58.5,176.6,58.8,176.5,59.3z M179.7,60.5
		c-0.1,0.5-0.4,0.9-0.8,1.2c-0.4,0.3-0.9,0.5-1.4,0.5c-0.6,0-1.1-0.2-1.4-0.5c-0.3-0.3-0.5-0.9-0.5-1.5c0-0.9,0.2-1.6,0.7-2.1
		s1-0.8,1.7-0.8c0.6,0,1,0.2,1.4,0.5c0.3,0.3,0.5,0.8,0.5,1.4c0,0.1,0,0.2,0,0.4s0,0.3,0,0.5h-3.5l0,0c0,0.1,0,0.2,0,0.2
		c0,0.4,0.1,0.7,0.3,1c0.2,0.2,0.5,0.3,0.9,0.3c0.3,0,0.6-0.1,0.8-0.2c0.2-0.2,0.4-0.4,0.5-0.7h0.8V60.5z"/>
</g>
<g>
	<path class="st3" d="M105.4,23.8c-2.4,0-4.3-1.9-4.3-4.3c0-2.3,1.9-4.3,4.3-4.3h11c0,0,9.4-0.1,10.8-11.3h-21.8
		c-8.6,0-15.6,6.9-15.6,15.5s7,15.5,15.6,15.5H116c2.2,0,4.1,1.9,4.1,4.3c0,2.3-1.9,4.4-4.3,4.4h-26c0,6.2,5,11.2,11.1,11.2h14.9
		c8.6,0,15.6-6.9,15.6-15.5c0-8.6-7-15.5-15.6-15.5H105L105.4,23.8z"/>
	<path class="st3" d="M85.8,19.4c0-8.3-6.3-15-14.4-15.5H48.8V4v18.1v1.5v0.1v19.8c0,1,0.1,1.9,0.4,2.8c0.1,0.5,0.3,1.1,0.5,1.6
		c0.5,1.2,1.2,2.2,2,3.2c0.7,0.8,1.6,1.5,2.5,2c0.3,0.2,0.6,0.4,0.9,0.5c1.5,0.7,3.1,1.1,4.8,1.1H60V34.9v0h10.4h0
		c3.7,0,7.2-1.3,9.8-3.5c0.4-0.3,0.7-0.6,1.1-1c1-1.1,1.9-2.3,2.7-3.6c0.7-1.3,1.2-2.8,1.5-4.3c0.1-0.3,0.1-0.5,0.1-0.8
		C85.8,21,85.8,20.2,85.8,19.4L85.8,19.4z M74.4,20.8L74.4,20.8c-0.1,0.3-0.2,0.5-0.3,0.7c-0.3,0.5-0.6,0.9-1,1.2
		c-0.7,0.6-1.7,0.9-2.7,0.9H60v-2v-6.5h9.3l1.1,0.1c2.3,0,4.2,1.9,4.2,4.2C74.6,20,74.5,20.4,74.4,20.8z"/>
	<path class="st3" d="M44.7,3.9c-6.3,0-11.4,5.1-11.4,11.4v16c0,0-20.8-21.5-22.8-23.3C8.1,5.6,5.4,3.9,1.9,3.9H1.8v50.8h0.1
		c6.3,0,11.4-5.1,11.4-11.4V27.1L35.5,50l0,0c2.8,2.8,5.4,4.7,9.2,4.7h0.1V3.9H44.7z"/>
	<path class="st4" d="M48.8,27.2c0,0,12.9,1.1,22.4-2.1C85,20.3,81.6,8.7,81.6,8.7S87.6,14.1,85,21c-1.7,4.5-6,8.5-10.9,10.2
		c-11.5,4-25.4,2.2-25.4,2.2V27.2z"/>
	<path class="st5" d="M48.8,26.2c0,0,11.9,1.1,21.4-2.1C84,19.3,80.6,7.7,80.6,7.7s6.1,5.4,3.4,12.4c-1.7,4.5-6,8.5-10.9,10.2
		c-11.5,4-24.4,2.2-24.4,2.2V26.2z"/>
	<path class="st5" d="M168,0.5h10.1v3.5c0,2.4-0.6,4.7-1.6,6.7h-2.3c1.2-2,1.9-4.3,1.9-6.7V2.5H168V0.5z"/>
	<path class="st3" d="M141,3.9c-6.2,0-11.2,5.1-11.2,11.3h16.8v39.5c6.2,0,11.2-5.1,11.2-11.3V15.2h5.6c6.2,0,11.2-5.1,11.2-11.3
		H141z"/>
	<g>
		<defs>
			<path id="SVGID_1_" d="M141,3.9c-6.2,0-11.2,5.1-11.2,11.3h16.8v39.5c6.2,0,11.2-5.1,11.2-11.3V15.2h5.6
				c6.2,0,11.2-5.1,11.2-11.3H141z"/>
		</defs>
		<clipPath id="SVGID_00000114045321827052847390000001593056554908445325_">
			<use xlink:href="#SVGID_1_"  style="overflow:visible;"/>
		</clipPath>
		<g style="clip-path:url(#SVGID_00000114045321827052847390000001593056554908445325_);">
			<path class="st5" d="M157.8,15.2h5.6c6.2,0,11.2-5.1,11.2-11.3h-2.8C171.8,9.8,163.5,14.6,157.8,15.2L157.8,15.2z"/>
		</g>
	</g>
</g>
</svg>
